<?xml version="1.0" encoding="UTF-8" standalone="no"?>
<!-- Created with Inkscape (http://www.inkscape.org/) -->
<svg
   xmlns:dc="http://purl.org/dc/elements/1.1/"
   xmlns:cc="http://web.resource.org/cc/"
   xmlns:rdf="http://www.w3.org/1999/02/22-rdf-syntax-ns#"
   xmlns:svg="http://www.w3.org/2000/svg"
   xmlns="http://www.w3.org/2000/svg"
   xmlns:xlink="http://www.w3.org/1999/xlink"
   xmlns:sodipodi="http://sodipodi.sourceforge.net/DTD/sodipodi-0.dtd"
   xmlns:inkscape="http://www.inkscape.org/namespaces/inkscape"
   width="38.976379"
   height="53.149609"
   id="svg3857"
   sodipodi:version="0.32"
   inkscape:version="0.45.1"
   version="1.0"
   sodipodi:docbase="D:\Data\Carto\GPS\objective comparaison\icones\memory card"
   sodipodi:docname="SecureDigitalCard_Micro.svg"
   inkscape:output_extension="org.inkscape.output.svg.inkscape">
  <defs
     id="defs3859">
    <pattern
       patternUnits="userSpaceOnUse"
       width="146.04424"
       height="122.61073"
       patternTransform="matrix(0.9992118,0,0,1.0160886,975.76317,745.71239)"
       id="pattern7171">
      <path
         style="fill:#787878;fill-opacity:1;fill-rule:evenodd;stroke:none;stroke-width:0.1;stroke-linecap:butt;stroke-linejoin:miter;stroke-miterlimit:4;stroke-dasharray:none;stroke-opacity:1"
         d="M 14.020601,2.0442311 L 14.064826,-1.7030821e-013 L 132.37757,-1.7030821e-013 L 132.33323,2.0877312 L 140.1618,2.1312215 C 142.77716,3.1001626 143.37734,4.9035682 143.78866,6.7851265 L 143.8329,60.152763 L 146.04424,64.241236 L 145.95577,119.21817 C 144.91535,122.83177 143.14325,122.10627 140.0292,122.61073 L 6.5901242,122.61073 C 4.6460219,122.35323 1.4605412,122.45206 0.088449714,119.00069 L 1.5265567e-014,63.588812 L 2.0787584,59.021907 L 2.211453,5.9587321 C 3.1106317,4.1212152 4.0732805,1.9435017 6.2362853,1.9137503 L 14.020601,2.0442311 z "
         id="path7158"
         sodipodi:nodetypes="ccccccccccccccccc" />
    </pattern>
    <linearGradient
       inkscape:collect="always"
       xlink:href="#aigrd13"
       id="linearGradient5808"
       gradientUnits="userSpaceOnUse"
       gradientTransform="matrix(1.3800506,0,0,1.3800506,97.869392,-177.92918)"
       x1="629.50787"
       y1="67.165855"
       x2="625.27094"
       y2="100.06479" />
    <linearGradient
       y2="122.7236"
       x2="59.021"
       y1="122.7236"
       x1="59.021"
       gradientUnits="userSpaceOnUse"
       id="aigrd13">
      <stop
         id="stop2321"
         style="stop-color:#FFFFE1"
         offset="0" />
      <stop
         id="stop2323"
         style="stop-color:#ffec00;stop-opacity:1;"
         offset="1" />
    </linearGradient>
  </defs>
  <sodipodi:namedview
     id="base"
     pagecolor="#ffffff"
     bordercolor="#666666"
     borderopacity="1.0"
     inkscape:pageopacity="0.0"
     inkscape:pageshadow="2"
     inkscape:zoom="1.4"
     inkscape:cx="46.428571"
     inkscape:cy="64.106341"
     inkscape:document-units="px"
     inkscape:current-layer="layer1"
     inkscape:window-width="748"
     inkscape:window-height="573"
     inkscape:window-x="53"
     inkscape:window-y="303" />
  <metadata
     id="metadata3862">
    <rdf:RDF>
      <cc:Work
         rdf:about="">
        <dc:format>image/svg+xml</dc:format>
        <dc:type
           rdf:resource="http://purl.org/dc/dcmitype/StillImage" />
      </cc:Work>
    </rdf:RDF>
  </metadata>
  <g
     inkscape:label="Calque 1"
     inkscape:groupmode="layer"
     id="layer1"
     transform="translate(-424.34234,122.70727)">
    <g
       id="SecureDigital_micro"
       transform="matrix(0.6100536,0,0,0.6115879,522.9194,273.63798)"
       inkscape:export-filename="D:\Data\Carto\GPS\objective comparaison\icones\SecureDigitalMicro.png"
       inkscape:export-xdpi="120"
       inkscape:export-ydpi="120"
       inkscape:label="SecureDigital_micro">
      <path
         sodipodi:nodetypes="cssscccsccccccccccsccc"
         id="path6599"
         d="M -158.91809,-561.88388 C -159.70131,-562.28473 -160.63913,-563.02009 -161.00215,-563.518 C -161.64484,-564.39954 -161.5991,-564.74451 -161.57718,-576.66362 L -161.46018,-640.27709 C -161.45523,-642.97289 -160.80336,-645.89867 -158.64897,-647.33363 L -157.55952,-648.05927 L -133.06883,-648.05927 C -106.40936,-648.05927 -107.02601,-648.09993 -105.822,-646.26239 C -105.28845,-645.44809 -105.22971,-644.26334 -105.11893,-632.08524 L -104.99806,-618.79662 L -97.697456,-611.27851 L -97.697456,-606.90452 L -97.697456,-602.53052 L -99.289296,-602.53052 C -101.33752,-602.53052 -101.54496,-602.1469 -101.54496,-598.35967 L -101.54496,-595.42916 L -97.903106,-591.61107 L -97.983966,-578.39438 C -98.057556,-566.36862 -98.117986,-565.05697 -98.654616,-563.83781 C -99.831016,-561.16515 -97.738216,-561.34159 -129.43934,-561.24263 L -157.49404,-561.15506 L -158.91809,-561.88388 z "
         style="fill:#000000" />
      <g
         id="g8771"
         transform="matrix(1.2519105,0,0,1.2519105,38.678576,150.45765)"
         style="fill:#ffffff">
        <g
           id="g8725"
           transform="translate(-128.51492,-1059.7545)"
           style="fill:#ffffff;overflow:visible">
          <title
             id="title8727">シート.61</title>
          <path
             style="fill:#ffffff"
             d="M 6.72,454.2 C 6.76,452.201 5.287,450.547 3.432,450.504 C 1.576,450.462 0.039,452.048 0,454.046 C -0.001,454.098 -0.001,454.149 0,454.2 C -0.04,456.198 1.433,457.853 3.288,457.895 C 5.143,457.937 6.681,456.352 6.72,454.353 C 6.721,454.303 6.721,454.252 6.72,454.2 z M 4.83,454.2 C 4.83,453.39 4.174,452.734 3.365,452.734 C 2.555,452.734 1.899,453.39 1.899,454.2 L 1.899,454.2 C 1.899,455.01 2.555,455.665 3.365,455.665 C 4.174,455.665 4.83,455.01 4.83,454.2 z "
             id="path8729" />
        </g>
        <g
           id="g8731"
           transform="translate(-143.33592,-1064.5802)"
           style="fill:#ffffff;overflow:visible">
          <title
             id="title8733">シート.58</title>
          <ellipse
             style="fill:#ffffff"
             sodipodi:ry="1.206"
             sodipodi:rx="1.206"
             sodipodi:cy="456.612"
             sodipodi:cx="1.206"
             cx="1.206"
             cy="456.612"
             rx="1.206"
             ry="1.206"
             id="ellipse8735" />
        </g>
        <g
           id="g8737"
           transform="translate(-153.54092,-1055.0862)"
           style="fill:#ffffff;overflow:visible">
          <title
             id="title8739">シート.60</title>
          <path
             style="fill:#ffffff"
             d="M 4.88,457.82 L 5.69,457.82 L 5.69,448.711 C 5.95,448.1 7.14,448.1 7.44,448.791 L 7.44,457.74 L 9.64,457.74 L 9.64,447.81 C 9.64,445.54 5.56,445.419 4.77,446.64 C 4.05,445.381 0,445.49 0,447.78 L 0,457.7 L 2.14,457.7 L 2.14,448.76 C 2.44,448.071 3.6,448.071 3.85,448.68 L 3.85,457.781 L 4.64,457.781 L 4.88,457.82 z "
             id="path8741" />
        </g>
        <g
           id="g8743"
           transform="translate(-143.33592,-1059.4098)"
           style="fill:#ffffff;overflow:visible">
          <title
             id="title8745">シート.49</title>
          <path
             style="fill:#ffffff"
             d="M 2.41,454.11 L 2.41,454.11 L 2.41,454.11 z M 2.41,454.11 C 2.442,453.444 1.93,452.878 1.264,452.846 C 0.599,452.813 0.033,453.326 2.220446e-016,453.992 C -0.002,454.031 -0.002,454.07 2.220446e-016,454.109 L 2.220446e-016,457.818 L 2.41,457.818 L 2.41,454.11 L 2.41,454.11 z "
             id="path8747" />
          <path
             style="fill:#ffffff"
             d="M 2.41,454.11 L 2.41,454.11 M 2.41,454.11 C 2.442,453.444 1.93,452.878 1.264,452.846 C 0.599,452.813 0.033,453.326 2.220446e-016,453.992 C -0.002,454.031 -0.002,454.07 2.220446e-016,454.109 L 2.220446e-016,457.818 L 2.41,457.818 L 2.41,454.11"
             id="path8749" />
        </g>
        <g
           id="g8751"
           transform="translate(-140.75092,-1059.7545)"
           style="fill:#ffffff;overflow:visible">
          <title
             id="title8753">シート.67</title>
          <path
             style="fill:#ffffff"
             d="M 4.83,450.65 L 3.27,450.65 L 3.27,450.679 C 1.24,450.934 -0.191,452.732 0.072,454.694 C 0.301,456.401 1.753,457.709 3.53,457.81 L 4.83,457.82 C 5.339,457.817 5.791,457.537 5.96,457.12 C 6.181,456.573 5.85,455.974 5.222,455.783 C 5.134,455.756 5.043,455.738 4.951,455.73 L 4.831,455.72 L 3.54,455.72 C 2.679,455.447 2.214,454.568 2.503,453.757 C 2.68,453.26 3.111,452.881 3.65,452.749 L 4.83,452.749 C 5.497,452.749 6.038,452.278 6.038,451.699 C 6.038,451.12 5.497,450.65 4.83,450.65 z "
             id="path8755" />
        </g>
        <g
           id="g8757"
           transform="translate(-134.54692,-1059.7545)"
           style="fill:#ffffff;overflow:visible">
          <title
             id="title8759">シート.62</title>
          <path
             style="fill:#ffffff"
             d="M 3.77,453.32 L 3.77,453.32 L 3.77,453.32 z M 5.79,453.891 C 6.115,452.483 5.286,451.067 3.937,450.727 C 3.607,450.643 3.264,450.631 2.929,450.69 C 1.562,450.452 0.267,451.416 0.038,452.844 C 0.024,452.928 0.015,453.014 0.009,453.1 L 0,453.27 L 0,457.821 L 2.01,457.821 L 2.01,457.471 L 2.01,455.84 L 2.01,453.32 C 1.984,452.886 2.355,452.515 2.839,452.491 C 3.323,452.467 3.738,452.799 3.766,453.232 C 3.767,453.261 3.767,453.291 3.766,453.32 L 3.771,453.89 L 5.79,453.89 L 5.79,453.891 z "
             id="path8761" />
          <path
             style="fill:#ffffff"
             d="M 3.77,453.32 L 3.77,453.32 M 5.79,453.891 C 6.115,452.483 5.286,451.067 3.937,450.727 C 3.607,450.643 3.264,450.631 2.929,450.69 C 1.562,450.452 0.267,451.416 0.038,452.844 C 0.024,452.928 0.015,453.014 0.009,453.1 L 0,453.27 L 0,457.821 L 2.01,457.821 L 2.01,457.471 L 2.01,455.84 L 2.01,453.32 C 1.984,452.886 2.355,452.515 2.839,452.491 C 3.323,452.467 3.738,452.799 3.766,453.232 C 3.767,453.261 3.767,453.291 3.766,453.32 L 3.771,453.89 L 5.79,453.89"
             id="path8763" />
        </g>
        <g
           id="g8765"
           transform="translate(-126.61192,-1061.8141)"
           style="fill:#000000;overflow:visible">
          <title
             id="title8767">シート.130</title>
          <ellipse
             style="fill:#000000"
             sodipodi:ry="1.559"
             sodipodi:rx="1.559"
             sodipodi:cy="456.259"
             sodipodi:cx="1.559"
             cx="1.559"
             cy="456.259"
             rx="1.559"
             ry="1.559"
             id="ellipse8769" />
        </g>
      </g>
      <path
         sodipodi:nodetypes="cccccscccccsccccccccsccccccccccccccscccccccssscccccccccccccccccc"
         id="path6609"
         d="M -138.96501,-593.09469 C -139.95963,-593.1221 -140.82138,-593.19247 -140.88,-593.25109 L -140.98658,-593.35767 L -140.76981,-593.86171 C -140.48153,-594.41939 -140.34341,-595.02164 -140.06719,-595.58388 C -140.06719,-595.91355 -139.91513,-595.94854 -138.98091,-595.83381 C -137.67814,-595.6738 -134.19812,-595.55058 -133.6875,-595.64637 L -133.21112,-595.73574 L -133.21112,-595.96674 C -133.21112,-596.09379 -133.34209,-596.26318 -133.50218,-596.34316 C -134.16916,-596.76587 -134.29215,-596.6705 -135.61911,-597.14698 C -136.451,-597.39403 -137.08446,-597.80559 -137.46981,-598.19915 C -137.94867,-598.68822 -138.12679,-599.03084 -138.12679,-599.46285 L -137.95694,-599.9036 L -137.68049,-600.33924 C -137.40955,-600.6298 -137.05471,-600.89841 -136.94856,-600.89841 C -135.96344,-601.33499 -134.87034,-601.44474 -133.79324,-601.55765 C -131.9312,-601.72065 -126.61377,-601.84973 -126.61377,-601.73194 L -127.06653,-600.25348 L -129.62894,-600.25255 C -132.37904,-600.25155 -134.58945,-600.05808 -134.87576,-599.79332 C -135.07728,-599.60698 -135.03133,-599.28433 -134.75288,-599.28433 C -133.51075,-598.77055 -132.18233,-598.49635 -130.90422,-598.08483 L -129.67218,-597.5438 L -128.81289,-596.66058 L -128.62759,-595.71794 L -128.81289,-594.80618 L -129.35014,-594.10524 L -130.0418,-593.58958 L -130.74967,-593.25826 L -131.5193,-593.1431 L -134.33794,-593.09399 C -135.8882,-593.06698 -137.97037,-593.06729 -138.96501,-593.09469 z M -127.00185,-596.50018 L -126.84015,-596.50832 C -125.90572,-596.55536 -123.79817,-596.86731 -123.44445,-597.01095 C -122.3256,-597.46528 -122.01146,-597.63042 -121.68389,-597.93641 L -121.31002,-598.28566 L -121.20193,-598.67108 L -121.31002,-599.08737 C -119.66963,-599.3398 -118.11525,-599.9608 -116.47824,-600.21219 L -115.98003,-600.28129 L -115.63741,-600.10476 C -115.12507,-599.84077 -114.34679,-599.09389 -114.12889,-598.65711 C -113.89406,-598.18638 -113.88195,-597.62845 -114.09821,-597.24436 C -114.30732,-596.87297 -115.47954,-595.71304 -115.88584,-595.47547 C -116.26675,-595.25275 -117.39534,-594.6971 -117.75262,-594.55638 C -118.64357,-594.26048 -119.5417,-593.91045 -120.46918,-593.74542 C -121.57886,-593.59735 -122.68507,-593.4247 -123.79277,-593.26274 C -124.26894,-593.19348 -125.41717,-593.13683 -126.3444,-593.13683 L -128.03026,-593.13683 L -127.00185,-596.50018 z M -121.74995,-599.38398 L -122.06486,-599.69979 C -118.62959,-601.20073 -119.03172,-601.17828 -118.49407,-601.23434 C -118.25912,-601.23434 -117.42882,-600.88433 -117.43033,-600.78063 C -118.07388,-600.60304 -121.44703,-599.12409 -121.74995,-599.38398 z M -125.44953,-600.25162 L -124.91682,-601.80393 L -123.85723,-601.79281 C -123.27447,-601.78669 -122.27375,-601.71369 -121.63341,-601.63058 L -120.46918,-601.47947 L -122.85679,-599.99289 L -125.44953,-600.25162 z "
         style="fill:#ffffff" />
      <path
         sodipodi:nodetypes="cccc"
         id="path6611"
         d="M -116.32151,-630.88436 L -110.89048,-630.82468 L -113.7552,-638.82202 L -116.32151,-630.88436 z "
         style="fill:#ffffff;fill-opacity:1;fill-rule:evenodd;stroke:none;stroke-width:1px;stroke-linecap:butt;stroke-linejoin:miter;stroke-opacity:1" />
    </g>
  </g>
</svg>
